<svg width="35" height="34" viewBox="0 0 35 34" fill="none" xmlns="http://www.w3.org/2000/svg">
<path fill-rule="evenodd" clip-rule="evenodd" d="M18.1492 22.6143V30.9604C18.3161 30.9717 18.423 30.8754 18.5408 30.8179C19.0145 30.5864 19.4838 30.3454 19.9557 30.11C22.1825 28.9977 24.4071 27.8817 26.6381 26.7785C26.9848 26.6072 27.1457 26.3688 27.1418 25.9833C27.1307 24.8857 27.136 23.7883 27.1305 22.6909C27.1302 22.6064 27.1785 22.5014 27.0601 22.4292C26.9546 22.477 26.8433 22.5229 26.736 22.5768C25.5376 23.1752 24.3342 23.7636 23.1447 24.3794C22.6809 24.6193 22.2652 24.6193 21.7998 24.3773C20.7082 23.8088 19.5996 23.2723 18.4967 22.7253C18.3909 22.6731 18.2915 22.5917 18.1492 22.6143ZM17.5041 31.0147V22.5883C17.3474 22.5912 17.2482 22.6691 17.1421 22.7216C16.0513 23.2618 14.9545 23.7904 13.8768 24.3563C13.387 24.613 12.9519 24.6237 12.4579 24.367C11.2582 23.7437 10.0404 23.1542 8.82935 22.5523C8.73643 22.5067 8.65166 22.4243 8.50862 22.4691C8.50862 23.0308 8.5094 23.5988 8.50835 24.1665C8.50704 24.7896 8.50914 25.4127 8.4989 26.0358C8.49339 26.3709 8.62384 26.6087 8.93355 26.7452C9.00756 26.778 9.07764 26.82 9.15008 26.857C11.8004 28.1801 14.4508 29.5032 17.1012 30.8252C17.2209 30.8851 17.3434 30.9394 17.5041 31.0147ZM3.84751 19.5592C4.00367 19.6379 4.08714 19.6815 4.17191 19.7219C5.33043 20.2797 6.49289 20.8298 7.64694 21.397C9.12934 22.1253 10.5695 22.9374 12.0781 23.6135C12.7521 23.9148 13.4235 23.9943 14.1065 23.6253C14.4395 23.4447 14.791 23.2991 15.1332 23.1358C15.8301 22.8035 16.5285 22.4749 17.2209 22.1337C17.3797 22.0555 17.5781 22.0064 17.6526 21.7867C14.6891 20.2983 11.7398 18.8167 8.7779 17.329C9.33065 16.9395 9.4506 16.8346 9.46163 16.4088C9.48971 15.3256 9.50493 14.2411 9.44955 13.1577C9.44745 13.1173 9.438 13.0774 9.43013 13.0375C9.34037 12.5734 9.10546 12.4254 8.6451 12.544C8.56688 12.5643 8.48867 12.5889 8.41544 12.6223C6.8858 13.3107 5.4118 14.1094 3.85512 14.8918C5.40707 15.6768 6.91152 16.438 8.46583 17.2246C6.91362 18.0091 5.41836 18.765 3.84751 19.5592ZM17.8476 21.8489C17.9933 21.9904 18.1245 22.0316 18.2445 22.0925C19.4169 22.6846 20.5948 23.2649 21.7597 23.872C22.2486 24.1266 22.7003 24.1337 23.1862 23.8741C23.8904 23.4977 24.6087 23.1479 25.3221 22.7893C27.2929 21.798 29.2648 20.8083 31.2349 19.8154C31.3874 19.7385 31.5509 19.6728 31.7013 19.5196C30.19 18.7561 28.7084 18.0072 27.162 17.2262C28.7194 16.4356 30.2168 15.6758 31.7687 14.8881C30.473 14.2369 29.247 13.6309 28.0318 13.0052C27.6284 12.7973 27.2108 12.6606 26.7678 12.5837C26.336 12.5084 26.1643 12.6498 26.1562 13.0965C26.1549 13.1779 26.162 13.259 26.1633 13.3404C26.1764 14.1671 26.1961 14.9942 26.1412 15.8204C26.0998 16.4469 26.3003 16.9401 26.9116 17.2038C26.9465 17.2188 26.9517 17.2403 26.8761 17.3199C23.9171 18.8041 20.8948 20.3203 17.8476 21.8489ZM8.03828 11.5813C8.05035 11.6068 8.06269 11.6322 8.07502 11.658C8.68263 11.658 9.2905 11.6546 9.8981 11.659C10.239 11.6616 10.3616 11.7758 10.3965 12.1081C10.4065 12.2021 10.4052 12.2976 10.4049 12.3926C10.401 13.7616 10.4078 15.1314 10.3855 16.5007C10.3771 17.0272 10.5808 17.3681 11.055 17.5928C13.1096 18.5658 15.1398 19.5889 17.1626 20.6253C17.6153 20.8571 18.0148 20.8626 18.4676 20.629C20.4867 19.5862 22.5184 18.5679 24.5701 17.5897C25.026 17.3721 25.2436 17.0655 25.2331 16.5432C25.2056 15.1879 25.2142 13.832 25.2103 12.4766C25.2098 12.3412 25.204 12.2031 25.2279 12.0713C25.2825 11.7708 25.4168 11.6645 25.7305 11.659C26.0153 11.6538 26.3 11.658 26.5848 11.658H27.667C27.5268 11.5105 27.442 11.4084 27.3446 11.3207C26.104 10.2068 24.8678 9.08713 23.614 7.98766C23.336 7.74409 23.2098 7.4958 23.219 7.12022C23.2442 6.10369 23.2282 5.08638 23.2274 4.06933C23.2271 3.66592 23.2258 3.66435 22.8389 3.6633C22.2694 3.66172 21.6998 3.65989 21.1303 3.66461C20.929 3.66619 20.6759 3.58062 20.5387 3.70135C20.3778 3.84282 20.4956 4.11028 20.4757 4.32182C20.4523 4.56565 20.5143 4.81814 20.4308 5.06643C20.2841 5.00974 20.2059 4.91342 20.1164 4.83232C19.4825 4.26014 18.8513 3.68482 18.2156 3.11475C17.8138 2.75438 17.8106 2.7578 17.418 3.11212C14.8411 5.43677 12.2642 7.76142 9.68761 10.0866C9.13696 10.5834 8.58788 11.0829 8.03828 11.5813ZM0.887695 16.8944C0.933889 7.54882 8.59339 0.0943031 17.5944 0.00112915C26.9365 -0.095459 34.7511 7.60893 34.7469 16.9101C34.743 25.745 27.541 33.8394 17.8671 33.8496C8.47318 33.8588 0.942813 26.2812 0.887695 16.8944Z" fill="#142B35"/>
</svg>
